# xmcd
#
# Track frame offsets: 
#        150
#        13180
#        28445
#        38642
#        53272
#        65705
#        82372
#        99205
#        112862
#        132172
#        144485
#        158227
#        169177
#        183877
#        197567
#        209505
#
# Disc length: 2964 seconds
#
# Revision: 1
# Processed by: cddbd v1.5.2PL0 Copyright (c) Steve Scherf et al.
# Submitted via: ExactAudioCopyFreeDBPlugin 1.0
#
DISCID=da0b9210
DTITLE=Various Artist - Country Fire
DYEAR=1991
DGENRE=Country
TTITLE0=Bellamy Brothers - Let Your Love Flow (Remake ´91)
TTITLE1=Joan Kennedy - The Trouble With Love
TTITLE2=Larry Mercey - Full Speed Ahead
TTITLE3=Go West - What Amidoin´ Hangin´ Round
TTITLE4=Willie Nelson - On The Road Again
TTITLE5=Kenny Rogers - Lucille
TTITLE6=Ben Steneker - Part Of Me
TTITLE7=Larry Mercey - You´re Still In This Crazy Arms Of Mine
TTITLE8=Kris Kristofferson - Me And Bobby MC Gee
TTITLE9=Greyhounds - Rocky Top
TTITLE10=Early Bird - Sweet Angeline
TTITLE11=South Mountain - Dixiefied
TTITLE12=Dave Dudley - Somewhere In L.A.
TTITLE13=South Mountain - Light Years Away
TTITLE14=Johnny Cash - Ring Of Fire
TTITLE15=Lynn Anderson - Rose Garden
EXTD=
EXTT0=
EXTT1=
EXTT2=
EXTT3=
EXTT4=
EXTT5=
EXTT6=
EXTT7=
EXTT8=
EXTT9=
EXTT10=
EXTT11=
EXTT12=
EXTT13=
EXTT14=
EXTT15=
PLAYORDER=
